<svg width="50" height="50" fill="none" xmlns="http://www.w3.org/2000/svg"><g clip-path="url(#clip0)" fill="#000"><path d="M15.041 3.547h-.047a2.02 2.02 0 00-2.018 2.019V8.81a2.02 2.02 0 002.018 2.018h.047a2.02 2.02 0 002.018-2.018V5.566a2.02 2.02 0 00-2.018-2.019zm.554 5.263a.555.555 0 01-.554.554h-.047a.555.555 0 01-.554-.554V5.566c0-.306.249-.554.554-.554h.047c.305 0 .554.248.554.554V8.81zm15.282 15.728a.732.732 0 00-.732-.732H18.98a.732.732 0 100 1.465h11.165a.732.732 0 00.732-.733zM6.403 7.93a.88.88 0 01.097-.408.732.732 0 00-1.306-.664 2.376 2.376 0 00.03 2.2.732.732 0 101.287-.699.89.89 0 01-.108-.43zM4.212 4.895a.732.732 0 00-1.005.247 5.366 5.366 0 00-.774 2.78c0 .982.267 1.943.774 2.78a.732.732 0 101.252-.759 3.901 3.901 0 01-.562-2.021c0-.715.194-1.414.562-2.022a.732.732 0 00-.247-1.005z"/><path d="M33.464 14.783c4.075 0 7.391-3.316 7.391-7.392C40.855 3.316 37.54 0 33.464 0c-4.076 0-7.392 3.316-7.392 7.391V19.85h-2.144V7.39c0-4.074-3.316-7.39-7.392-7.39-4.075 0-7.391 3.316-7.391 7.391 0 4.076 3.316 7.392 7.391 7.392.772 0 1.523-.116 2.244-.347v.606a.732.732 0 101.464 0V12.83c0-.663-.185-1.31-.534-1.874l-.227-.366a.732.732 0 10-1.245.772l.228.366c.205.331.314.712.314 1.102v.047a5.86 5.86 0 01-2.244.443 5.934 5.934 0 01-5.926-5.93 5.934 5.934 0 015.927-5.927 5.934 5.934 0 015.927 5.927v12.46h-2.22v-1.358a.732.732 0 10-1.463 0v1.358h-8.117a1.31 1.31 0 00-1.308 1.308v22.084A6.765 6.765 0 0016.112 50h10.01a.732.732 0 100-1.464h-10.01a5.3 5.3 0 01-5.293-5.294V21.314H39.18v21.928a5.3 5.3 0 01-5.293 5.294h-4.324a.732.732 0 100 1.464h4.324a6.765 6.765 0 006.758-6.758V21.159a1.31 1.31 0 00-1.309-1.308H31.22v-5.414c.721.23 1.472.347 2.244.347zm-5.927 5.067V7.39a5.934 5.934 0 015.927-5.927 5.934 5.934 0 015.927 5.927 5.934 5.934 0 01-5.927 5.928 5.86 5.86 0 01-2.243-.443v-.047c0-.39.108-.77.314-1.102l.227-.366a.732.732 0 00-1.245-.772l-.227.366a3.552 3.552 0 00-.534 1.874v7.02h-2.22z"/><path d="M34.96 10.828h.046a2.02 2.02 0 002.019-2.018V5.566a2.02 2.02 0 00-2.019-2.019h-.046a2.02 2.02 0 00-2.019 2.019V8.81a2.02 2.02 0 002.019 2.018zm-.554-5.262c0-.306.248-.554.554-.554h.046c.306 0 .554.248.554.554V8.81a.554.554 0 01-.554.554h-.046a.555.555 0 01-.554-.554V5.566zm9.416.971a.732.732 0 00-.321.985.89.89 0 01.097.407.891.891 0 01-.109.43.732.732 0 101.287.7 2.371 2.371 0 00.03-2.2.732.732 0 00-.984-.322zm2.972-1.395a.732.732 0 10-1.253.758 3.904 3.904 0 010 4.043.732.732 0 101.253.759 5.364 5.364 0 00.774-2.78c0-.983-.268-1.944-.774-2.78z"/></g><defs><clipPath id="clip0"><path fill="#fff" d="M0 0h50v50H0z"/></clipPath></defs></svg>