<svg width="110" height="110" fill="none" xmlns="http://www.w3.org/2000/svg"><path d="M33.09 7.804h-.103a4.445 4.445 0 00-4.44 4.44v7.138a4.445 4.445 0 004.44 4.44h.102a4.445 4.445 0 004.44-4.44v-7.138a4.445 4.445 0 00-4.44-4.44zm1.218 11.578a1.22 1.22 0 01-1.219 1.218h-.102a1.22 1.22 0 01-1.219-1.218v-7.138a1.22 1.22 0 011.219-1.218h.102a1.22 1.22 0 011.219 1.218v7.138zm33.62 34.603c0-.89-.72-1.611-1.61-1.611H41.755a1.61 1.61 0 100 3.222h24.563c.89 0 1.61-.721 1.61-1.611zm-53.843-36.54c0-.317.072-.619.213-.897a1.61 1.61 0 00-2.872-1.46 5.215 5.215 0 00.067 4.84 1.61 1.61 0 102.831-1.538 1.96 1.96 0 01-.239-.945zm-4.818-6.677a1.61 1.61 0 00-2.212.544 11.805 11.805 0 00-1.704 6.116c0 2.161.59 4.276 1.703 6.116a1.61 1.61 0 102.756-1.669 8.583 8.583 0 01-1.237-4.447c0-1.573.428-3.11 1.237-4.448a1.61 1.61 0 00-.543-2.212z" fill="#000"/><path d="M73.62 32.523c8.966 0 16.261-7.295 16.261-16.262C89.881 7.295 82.586 0 73.62 0S57.359 7.295 57.359 16.261V43.67h-4.718V16.261C52.64 7.295 45.346 0 36.38 0c-8.967 0-16.261 7.295-16.261 16.261 0 8.967 7.294 16.262 16.26 16.262 1.699 0 3.35-.257 4.936-.764v1.334a1.61 1.61 0 103.221 0v-4.87a7.813 7.813 0 00-1.174-4.121l-.5-.806a1.61 1.61 0 10-2.737 1.698l.5.806c.451.728.69 1.566.69 2.423v.104c-1.565.644-3.22.974-4.935.974-7.19 0-13.04-5.85-13.04-13.04 0-7.19 5.85-13.04 13.04-13.04 7.19 0 13.04 5.85 13.04 13.04V43.67h-4.884v-2.987a1.61 1.61 0 10-3.221 0v2.987H23.459a2.882 2.882 0 00-2.88 2.88v48.584c0 8.198 6.67 14.867 14.867 14.867H57.47a1.61 1.61 0 100-3.222H35.446c-6.42 0-11.645-5.223-11.645-11.645V46.892H86.2v48.242c0 6.421-5.224 11.645-11.645 11.645H65.04a1.61 1.61 0 100 3.222h9.514c8.197 0 14.866-6.669 14.866-14.867V46.548a2.882 2.882 0 00-2.879-2.879H68.685V31.76a16.14 16.14 0 004.935.764zM60.58 43.669V16.261c0-7.19 5.85-13.04 13.04-13.04 7.19 0 13.04 5.85 13.04 13.04 0 7.19-5.85 13.04-13.04 13.04-1.715 0-3.37-.33-4.935-.974v-.103c0-.858.239-1.696.69-2.424l.5-.806a1.61 1.61 0 10-2.737-1.698l-.5.806a7.814 7.814 0 00-1.175 4.122V43.67h-4.882z" fill="#000"/><path d="M76.91 23.822h.103a4.445 4.445 0 004.44-4.44v-7.138a4.445 4.445 0 00-4.44-4.44h-.102a4.445 4.445 0 00-4.44 4.44v7.138a4.445 4.445 0 004.44 4.44zm-1.218-11.578a1.22 1.22 0 011.219-1.218h.102a1.22 1.22 0 011.219 1.218v7.138a1.22 1.22 0 01-1.219 1.218h-.102a1.22 1.22 0 01-1.219-1.218v-7.138zm20.716 2.138a1.61 1.61 0 00-.707 2.165c.142.28.214.58.214.898 0 .335-.08.654-.239.945a1.61 1.61 0 102.83 1.538 5.216 5.216 0 00.068-4.84 1.611 1.611 0 00-2.166-.706zm6.538-3.07a1.611 1.611 0 00-2.756 1.668 8.58 8.58 0 011.237 4.448c0 1.573-.427 3.11-1.237 4.447a1.61 1.61 0 102.756 1.669 11.805 11.805 0 001.703-6.116c0-2.161-.589-4.276-1.703-6.116z" fill="#000"/></svg>