<svg width="110" height="110" fill="none" xmlns="http://www.w3.org/2000/svg"><g clip-path="url(#clip0)" fill="#000"><path d="M110 70.806c0-4.868-3.96-8.828-8.828-8.828H88.93V10.743a4.918 4.918 0 00-4.913-4.913H26.233a4.918 4.918 0 00-4.913 4.913V37.55a1.62 1.62 0 003.241 0V10.743c0-.922.75-1.672 1.672-1.672h57.784c.921 0 1.671.75 1.671 1.672v72.133H63.44a1.62 1.62 0 000 3.241h22.25v14.812H24.56V86.117h32.397a1.62 1.62 0 000-3.24H24.56V44.032a1.62 1.62 0 00-3.24 0v17.945H8.827C3.96 61.978 0 65.938 0 70.806c0 4.643 3.602 8.457 8.158 8.8v18.311a6.26 6.26 0 006.254 6.253h81.176a6.26 6.26 0 006.254-6.253v-18.31c4.556-.344 8.158-4.159 8.158-8.8zm-106.759 0a5.593 5.593 0 015.587-5.587H21.32v11.174H8.83a5.593 5.593 0 01-5.588-5.587zM11.4 97.917V79.635h9.92v21.294h-6.908a3.015 3.015 0 01-3.013-3.012zm84.188 3.012H88.93V79.635h9.67v18.282a3.016 3.016 0 01-3.012 3.012zm5.584-24.536H88.93V65.22h12.242a5.593 5.593 0 015.587 5.587 5.594 5.594 0 01-5.587 5.587z"/><path d="M77.792 20.291a4.52 4.52 0 00-4.514-4.514H36.972a4.52 4.52 0 00-4.514 4.514v23.687a4.52 4.52 0 004.514 4.514h36.306a4.52 4.52 0 004.514-4.514V20.29zm-40.82-1.273h36.306c.702 0 1.273.571 1.273 1.273v2.37l-6.766 14.076-2.913-9.907a1.62 1.62 0 00-2.962-.348l-5.47 9.558-3.522-3.745a1.624 1.624 0 00-2.442.094l-4.715 5.853-5.736-11.67a1.62 1.62 0 00-2.79-.202l-1.536 2.237v-8.316c0-.702.57-1.273 1.273-1.273zm36.306 26.233H36.972a1.275 1.275 0 01-1.273-1.273v-9.645l2.64-3.845 5.635 11.465a1.62 1.62 0 002.717.302l5.142-6.384 3.746 3.984a1.62 1.62 0 002.587-.305l4.669-8.157 3.03 10.303a1.62 1.62 0 003.015.245l5.671-11.798v13.835c0 .702-.571 1.273-1.273 1.273zm-39.2 15.515h15.207a1.62 1.62 0 000-3.241H34.078a1.62 1.62 0 000 3.24zm0 7.542h25.288a1.62 1.62 0 000-3.24H34.078a1.62 1.62 0 000 3.24zM71.38 56.344a5.877 5.877 0 00-5.87 5.87 5.876 5.876 0 005.87 5.87 5.876 5.876 0 005.87-5.87 5.877 5.877 0 00-5.87-5.87zm0 8.499a2.632 2.632 0 01-2.63-2.629c0-1.45 1.18-2.629 2.63-2.629s2.628 1.18 2.628 2.63a2.631 2.631 0 01-2.629 2.628z"/></g><defs><clipPath id="clip0"><path fill="#fff" d="M0 0h110v110H0z"/></clipPath></defs></svg>