<svg width="50" height="50" fill="none" xmlns="http://www.w3.org/2000/svg"><g clip-path="url(#clip0)" fill="#000"><path d="M50 32.185c0-2.213-1.8-4.013-4.013-4.013h-5.564V4.883A2.236 2.236 0 0038.19 2.65H11.924a2.236 2.236 0 00-2.233 2.233v12.185a.737.737 0 001.473 0V4.883a.76.76 0 01.76-.76h26.265c.42 0 .76.341.76.76v32.788H28.837a.737.737 0 000 1.473h10.112v6.733H11.164v-6.733H25.89a.737.737 0 000-1.473H11.164V20.015a.737.737 0 00-1.473 0v8.157H4.013A4.017 4.017 0 000 32.185a4.017 4.017 0 003.708 4v8.323a2.846 2.846 0 002.843 2.842h36.898a2.846 2.846 0 002.843-2.842v-8.323a4.017 4.017 0 003.708-4zm-48.527 0c0-1.4 1.14-2.54 2.54-2.54H9.69v5.08H4.013c-1.4 0-2.54-1.14-2.54-2.54zm3.709 12.323v-8.31H9.69v9.679H6.55a1.37 1.37 0 01-1.37-1.37zm38.267 1.369h-3.026v-9.68h4.395v8.31a1.37 1.37 0 01-1.369 1.37zm2.538-11.153h-5.564v-5.079h5.564c1.4 0 2.54 1.14 2.54 2.54 0 1.4-1.14 2.54-2.54 2.54z"/><path d="M35.36 9.223c0-1.131-.92-2.052-2.052-2.052H16.805c-1.131 0-2.052.92-2.052 2.052V19.99c0 1.131.92 2.052 2.052 2.052h16.503c1.132 0 2.052-.92 2.052-2.052V9.223zm-18.555-.578h16.503c.32 0 .579.26.579.578v1.078l-3.076 6.398-1.324-4.504a.737.737 0 00-1.346-.158l-2.486 4.345-1.601-1.702a.738.738 0 00-1.11.042l-2.143 2.66-2.608-5.304a.736.736 0 00-1.268-.092l-.698 1.017v-3.78c0-.319.26-.578.578-.578zm16.503 11.924H16.805a.58.58 0 01-.578-.58v-4.383l1.2-1.748 2.561 5.212a.737.737 0 001.235.137l2.337-2.902 1.703 1.811a.736.736 0 001.176-.139l2.122-3.708 1.377 4.684a.737.737 0 001.371.111l2.578-5.363v6.29a.58.58 0 01-.579.578zM15.49 27.62h6.912a.737.737 0 100-1.472H15.49a.737.737 0 100 1.473zm0 3.43h11.494a.737.737 0 000-1.474H15.49a.737.737 0 000 1.473zm16.955-5.439a2.671 2.671 0 00-2.668 2.668 2.671 2.671 0 002.668 2.668 2.671 2.671 0 002.669-2.668 2.671 2.671 0 00-2.669-2.668zm0 3.863a1.196 1.196 0 111.195-1.195c0 .66-.536 1.195-1.195 1.195z"/></g><defs><clipPath id="clip0"><path fill="#fff" d="M0 0h50v50H0z"/></clipPath></defs></svg>