<svg width="15" height="15" fill="none" xmlns="http://www.w3.org/2000/svg"><g clip-path="url(#clip0)"><path d="M8.21 6.986h-.418v-.404a.411.411 0 00-.417-.404.411.411 0 00-.417.404v.404H6.54a.411.411 0 00-.417.404.41.41 0 00.417.405h.418v.404a.41.41 0 00.417.404.41.41 0 00.417-.404v-.404h.418c.23 0 .417-.181.417-.405a.411.411 0 00-.417-.404zM10.715.492h-6.68c-.69 0-1.252.544-1.252 1.213v11.371c0 .669.562 1.213 1.252 1.213h6.68c.69 0 1.252-.544 1.252-1.213V1.705c0-.67-.562-1.213-1.252-1.213zm.417 12.584a.411.411 0 01-.417.404h-6.68a.411.411 0 01-.417-.404V1.705c0-.223.187-.405.417-.405h6.68c.23 0 .417.182.417.405v11.371zM7.375 4.561c-1.611 0-2.922 1.27-2.922 2.83s1.31 2.829 2.922 2.829c1.611 0 2.922-1.27 2.922-2.83s-1.31-2.83-2.922-2.83zm0 4.85c-1.151 0-2.087-.906-2.087-2.02 0-1.115.936-2.022 2.087-2.022 1.151 0 2.087.907 2.087 2.021 0 1.115-.936 2.021-2.087 2.021zm0-6.494a.41.41 0 00.417-.404.411.411 0 00-.417-.404.411.411 0 00-.417.404.41.41 0 00.417.404zm.835 8.947H6.54a.411.411 0 00-.417.404.41.41 0 00.417.404h1.67a.41.41 0 00.417-.404.411.411 0 00-.417-.405z" fill="url(#paint0_linear)"/></g><defs><linearGradient id="paint0_linear" x1="7.375" y1="14.289" x2="7.375" y2=".492" gradientUnits="userSpaceOnUse"><stop stop-color="#5558FF"/><stop offset="1" stop-color="#00C0FF"/></linearGradient><clipPath id="clip0"><path fill="#fff" d="M.25.492H14.5v13.797H.25z"/></clipPath></defs></svg>