<svg width="40" height="40" fill="none" xmlns="http://www.w3.org/2000/svg"><path d="M22.344 18.828h-1.172v-1.172a1.172 1.172 0 00-2.344 0v1.172h-1.172a1.172 1.172 0 000 2.344h1.172v1.172a1.172 1.172 0 002.344 0v-1.172h1.172a1.172 1.172 0 000-2.344zM29.375 0h-18.75a3.52 3.52 0 00-3.516 3.516v32.968A3.52 3.52 0 0010.625 40h18.75a3.52 3.52 0 003.516-3.516V3.516A3.52 3.52 0 0029.375 0zm1.172 36.484c0 .646-.526 1.172-1.172 1.172h-18.75a1.173 1.173 0 01-1.172-1.172V3.516c0-.647.526-1.172 1.172-1.172h18.75c.646 0 1.172.525 1.172 1.172v32.968zM20 11.797c-4.523 0-8.203 3.68-8.203 8.203s3.68 8.203 8.203 8.203 8.203-3.68 8.203-8.203-3.68-8.203-8.203-8.203zm0 14.062A5.866 5.866 0 0114.14 20c0-3.23 2.63-5.86 5.86-5.86 3.23 0 5.86 2.63 5.86 5.86 0 3.23-2.63 5.86-5.86 5.86zm0-18.828a1.172 1.172 0 100-2.344 1.172 1.172 0 000 2.344zm2.344 25.938h-4.688a1.172 1.172 0 000 2.343h4.688a1.172 1.172 0 000-2.343z" fill="url(#paint0_linear)"/><defs><linearGradient id="paint0_linear" x1="20" y1="40" x2="20" y2="0" gradientUnits="userSpaceOnUse"><stop stop-color="#5558FF"/><stop offset="1" stop-color="#00C0FF"/></linearGradient></defs></svg>