<svg width="35" height="35" fill="none" xmlns="http://www.w3.org/2000/svg"><g clip-path="url(#clip0)"><path d="M34.047 25.686l-4.884-4.884c-1.744-1.744-4.71-1.046-5.408 1.221-.523 1.57-2.267 2.442-3.837 2.093-3.49-.872-8.2-5.407-9.071-9.07-.524-1.57.523-3.315 2.093-3.838 2.268-.698 2.966-3.663 1.221-5.408L9.277.916c-1.396-1.221-3.49-1.221-4.71 0L1.252 4.23c-3.314 3.489.35 12.734 8.548 20.933C18 33.362 27.244 37.2 30.733 33.711l3.314-3.315c1.222-1.395 1.222-3.488 0-4.71z" fill="#2692FF"/></g><defs><clipPath id="clip0"><path fill="#fff" d="M0 0h35v35H0z"/></clipPath></defs></svg>