<svg width="110" height="110" fill="none" xmlns="http://www.w3.org/2000/svg"><path d="M39.531 91.094H29.22a3.441 3.441 0 00-3.438 3.437 6.882 6.882 0 006.875 6.875h3.438a6.882 6.882 0 006.875-6.875 3.441 3.441 0 00-3.438-3.437zm-3.437 6.875h-3.438a3.441 3.441 0 01-3.437-3.438H39.53a3.441 3.441 0 01-3.437 3.438zm20.625-6.875H53.28a3.44 3.44 0 00-3.437 3.437v1.719A5.162 5.162 0 0055 101.406a5.162 5.162 0 005.156-5.156v-1.719a3.44 3.44 0 00-3.437-3.437zm0 5.156a1.72 1.72 0 01-3.438 0v-1.719h3.438v1.719zm-41.25-5.156H12.03a3.44 3.44 0 00-3.437 3.437v1.719a5.162 5.162 0 005.156 5.156 5.162 5.162 0 005.156-5.156v-1.719a3.44 3.44 0 00-3.437-3.437zm0 5.156a1.72 1.72 0 01-3.438 0v-1.719h3.438v1.719zm92.812-52.767l-2.27-.824 1.024-2.188-6.565-6.565-2.188 1.024-.827-2.274H88.17l-.823 2.27-2.188-1.024-6.566 6.566 1.025 2.188-2.274.827v9.284l2.27.824-1.024 2.188 6.566 6.565 2.187-1.024.827 2.274h9.285l.823-2.27 2.188 1.024 6.566-6.566-1.025-2.188 2.274-.827v-9.284zm-3.437 6.875l-1.415.515-.759.348-.734 1.772.964 2.059-3.16 3.159-2.058-.965-1.856.767-.78 2.143H90.58l-.516-1.414-.347-.76-1.772-.734-2.06.964-3.158-3.159.964-2.059-.767-1.856-2.143-.78v-4.466l1.415-.515.76-.348.733-1.772-.964-2.059 3.16-3.159 2.058.965 1.856-.767.78-2.143h4.466l.516 1.414.347.76 1.772.734 2.06-.964 3.158 3.159-.964 2.059.766 1.856 2.144.78v4.466z" fill="#000"/><path d="M92.813 39.531c-4.74 0-8.594 3.855-8.594 8.594 0 4.739 3.855 8.594 8.594 8.594 4.738 0 8.593-3.855 8.593-8.594 0-4.739-3.855-8.594-8.594-8.594zm0 13.75a5.163 5.163 0 01-5.157-5.156 5.163 5.163 0 015.156-5.156 5.163 5.163 0 015.157 5.156 5.163 5.163 0 01-5.156 5.156zM67.031 34.786V10.312c0-4.738-3.855-8.593-8.594-8.593H10.313c-4.74 0-8.594 3.855-8.594 8.594v89.374c0 4.739 3.855 8.594 8.594 8.594h48.124c4.74 0 8.594-3.855 8.594-8.594V61.465c2.463-.582 4.668-1.782 6.387-3.546l.488-.5v-5.855H68.75a3.44 3.44 0 01-3.438-3.438 3.44 3.44 0 013.438-3.438h5.156v-5.855l-.488-.5c-1.719-1.764-3.924-2.964-6.387-3.546zm-3.437 64.901a5.163 5.163 0 01-5.157 5.157H10.313a5.163 5.163 0 01-5.157-5.156V10.311a5.163 5.163 0 015.157-5.156h48.124a5.163 5.163 0 015.157 5.157v24.062c-1.174 0-2.327.162-3.438.452V12.031a3.44 3.44 0 00-3.437-3.437h-9.936l-1.392 5.572a1.72 1.72 0 01-1.67 1.303H25.029a1.72 1.72 0 01-1.668-1.301l-1.393-5.574h-9.936a3.441 3.441 0 00-3.437 3.437V84.22a3.44 3.44 0 003.437 3.437H56.72a3.44 3.44 0 003.437-3.437V61.423c1.11.29 2.264.452 3.438.452v37.813zM29.64 41.25h-4.266l3.305-8.594h3.415L29.64 41.25zm-3.32-12.031L16.401 55h10.563L21.81 73.906h8.39L41.322 55h10.376a13.825 13.825 0 005.019 5.012v24.207H12.031V12.03h7.252l.744 2.972a5.147 5.147 0 005.001 3.903h18.695A5.149 5.149 0 0048.725 15l.742-2.97h7.252v24.207A13.824 13.824 0 0051.7 41.25H33.217l3.437-12.031H26.32zM30.531 55h6.803l-9.1 15.469h-1.92L30.531 55zm39.937-13.75H68.75a6.882 6.882 0 00-6.875 6.875A6.882 6.882 0 0068.75 55h1.719v.983c-1.798 1.588-4.211 2.455-6.875 2.455-3.95 0-7.604-2.314-9.306-5.896l-.467-.98H21.409l2.643-6.874h29.769l.466-.98c1.703-3.582 5.357-5.895 9.307-5.895 2.664 0 5.077.866 6.875 2.454v.983z" fill="#000"/><path d="M25.781 8.594H42.97v3.437H25.78V8.594z" fill="#000"/></svg>