<svg width="50" height="50" fill="none" xmlns="http://www.w3.org/2000/svg"><path d="M17.742 41.935h-4.84c-.889 0-1.612.724-1.612 1.613a3.23 3.23 0 003.226 3.226h1.613a3.23 3.23 0 003.226-3.226c0-.89-.724-1.613-1.613-1.613zm-1.613 3.226h-1.613c-.89 0-1.613-.723-1.613-1.613h4.839c0 .89-.724 1.613-1.613 1.613zm9.677-3.226h-1.613c-.889 0-1.612.724-1.612 1.613v.807A2.422 2.422 0 0025 46.775a2.422 2.422 0 002.42-2.42v-.807c0-.89-.724-1.613-1.614-1.613zm0 2.42a.807.807 0 01-1.613 0v-.807h1.613v.807zm-19.355-2.42H4.838c-.889 0-1.612.724-1.612 1.613v.807a2.422 2.422 0 002.419 2.42 2.422 2.422 0 002.42-2.42v-.807c0-.89-.724-1.613-1.614-1.613zm0 2.42a.807.807 0 01-1.613 0v-.807h1.613v.807zM50 19.596l-1.065-.386.48-1.027-3.08-3.08-1.027.48-.388-1.067h-4.356l-.387 1.066-1.026-.481-3.08 3.08.48 1.027-1.067.388v4.356l1.065.387-.48 1.026 3.08 3.081 1.027-.48.388 1.066h4.356l.386-1.065 1.027.48 3.08-3.08-.48-1.027L50 23.952v-4.356zm-1.613 3.226l-.664.242-.356.163-.344.831.452.966-1.482 1.482-.966-.452-.871.36-.367 1.005h-2.095l-.242-.663-.163-.357-.83-.344-.967.452-1.482-1.482.452-.966-.36-.871-1.005-.366v-2.095l.663-.242.357-.163.344-.832-.452-.966 1.482-1.482.966.452.871-.36.366-1.005h2.095l.242.664.163.356.832.345.966-.453 1.482 1.482-.452.966.36.871 1.005.367v2.095z" fill="#000"/><path d="M42.742 17.742a4.037 4.037 0 00-4.032 4.032 4.037 4.037 0 004.032 4.032 4.037 4.037 0 004.033-4.032 4.037 4.037 0 00-4.033-4.032zm0 6.452a2.422 2.422 0 01-2.42-2.42 2.422 2.422 0 012.42-2.42 2.422 2.422 0 012.42 2.42 2.422 2.422 0 01-2.42 2.42zm-12.097-8.679V4.032A4.037 4.037 0 0026.613 0H4.033A4.037 4.037 0 000 4.032v41.936A4.037 4.037 0 004.032 50h22.58a4.037 4.037 0 004.033-4.032V28.033c1.156-.273 2.19-.836 2.997-1.664l.229-.234v-2.748h-2.42a1.614 1.614 0 01.001-3.226h2.419v-2.747l-.23-.235c-.805-.827-1.84-1.39-2.996-1.664zm-1.613 30.453a2.422 2.422 0 01-2.42 2.42H4.033a2.422 2.422 0 01-2.42-2.42V4.032a2.422 2.422 0 012.42-2.42h22.58a2.422 2.422 0 012.42 2.42v11.29a6.37 6.37 0 00-1.613.213V4.839c0-.89-.723-1.613-1.613-1.613h-4.662l-.653 2.614a.807.807 0 01-.783.612h-8.77a.808.808 0 01-.784-.61l-.653-2.616H4.839c-.89 0-1.613.723-1.613 1.613v33.87c0 .89.723 1.614 1.613 1.614h20.968c.889 0 1.612-.724 1.612-1.613V28.014a6.37 6.37 0 001.613.212v17.742zm-15.931-27.42h-2.002l1.551-4.032h1.602l-1.151 4.032zm-1.558-5.645L6.89 25h4.956l-2.42 8.871h3.938L18.582 25h4.869a6.487 6.487 0 002.355 2.352V38.71H4.839V4.839H8.24l.35 1.394a2.415 2.415 0 002.346 1.832h8.772a2.416 2.416 0 002.347-1.833l.348-1.393h3.402v11.358a6.486 6.486 0 00-2.354 2.351h-8.673l1.613-5.645h-4.85zM13.519 25h3.192l-4.27 7.258h-.9L13.518 25zm18.74-6.452h-.807a3.23 3.23 0 00-3.226 3.226A3.23 3.23 0 0031.452 25h.806v.461c-.844.745-1.976 1.152-3.226 1.152a4.86 4.86 0 01-4.366-2.766l-.22-.46H9.24l1.24-3.226h13.968l.218-.46a4.862 4.862 0 014.367-2.765c1.25 0 2.383.406 3.226 1.151v.461z" fill="#000"/></svg>